:SAMPLES-PER-SECOND 30
:FRAME-RANGE 1-668
:FULLY-SPECIFIED
:DEGREES
84
root  45.5545 38.3318 5.77642 178.948 -36.2723 -176.636
RightUpLeg  -15.5426 1.35144 3.52059
RightLeg  29.6606 -9.73607 -6.18622
RightFoot  -18.2592 0.18818 5.15874
RightToes  -1.33073e-015 0 -3.6325e-017
Spine  12.964 -1.68879 -0.98022
Spine1  -7.71492 -1.87395 0.792882
HEad  12.6229 -11.9492 1.46633
LeftShoulder1  0.707381 1.53412 -29.8183
LeftArm  -35.2369 32.0502 -23.2916
LeftForeArm  -3.43131 -56.0174 -17.1894
LeftHand  0.108123 7.29234 8.31057
RightShoulder  1.35361 0.91444 24.6056
RightArm  -49.385 7.77826 -11.8175
RightForeArm  42.2948 67.7795 23.4385
RightHand  -1.00563 2.21248 -15.4835
LeftUpLeg  -13.3969 13.9397 16.2799
LeftLeg  25.8396 -7.15985 -3.43485
LeftFoot  -11.4804 0.0534668 -12.3907
LeftToes  -2.73175e-012 1.00346e-010 -4.28452e-011
85
root  45.4007 38.5557 5.90881 179.444 -36.3132 -177.019
RightUpLeg  -14.8326 0.805048 2.74276
RightLeg  27.5189 -9.41142 -5.51697
RightFoot  -17.316 0.184596 5.78367
RightToes  -1.33073e-015 0 -3.6325e-017
Spine  12.4889 -2.43992 -1.64962
Spine1  -7.51626 -2.48149 -0.952765
HEad  12.2399 -13.1358 3.10215
LeftShoulder1  0.749697 1.42513 -29.975
LeftArm  -35.8253 30.9772 -21.2718
LeftForeArm  -4.54966 -56.4045 -17.5537
LeftHand  0.103315 7.46545 7.45745
RightShoulder  0.191706 -2.70563 18.1285
RightArm  -38.9803 7.10191 -10.663
RightForeArm  40.7814 70.6714 28.6851
RightHand  0.00454679 1.96836 -0.0975669
LeftUpLeg  -12.686 14.2319 15.4392
LeftLeg  23.6893 -7.25787 -3.14973
LeftFoot  -10.4331 0.159572 -12.235
LeftToes  -2.73175e-012 1.00346e-010 -4.28452e-011
86
root  45.2261 38.8005 6.03986 179.644 -35.5019 -177.204
RightUpLeg  -13.8368 0.894102 2.22136
RightLeg  24.903 -9.03989 -4.77846
RightFoot  -15.1253 0.0775303 5.44963
RightToes  -1.33073e-015 0 -3.6325e-017
Spine  11.9531 -3.05304 -1.694
Spine1  -7.30834 -2.80449 -3.23471
HEad  12.4237 -13.0721 3.90537
LeftShoulder1  0.771073 1.40586 -30.6706
LeftArm  -36.4649 30.6596 -18.4158
LeftForeArm  -4.59688 -57.3334 -18.2371
LeftHand  0.0927894 7.51814 6.76648
RightShoulder  -0.17233 -4.47514 10.0401
RightArm  -24.9941 6.97638 -7.55981
RightForeArm  37.0217 71.7099 31.8233
RightHand  0.561559 0.416048 11.2012
LeftUpLeg  -11.2866 14.6912 14.9264
LeftLeg  21.2263 -6.87974 -2.61643
LeftFoot  -9.46096 0.257992 -12.2406
LeftToes  -2.73175e-012 1.00346e-010 -4.28452e-011
87
root  45.0364 39.0109 6.15251 179.883 -33.7484 -177.738
RightUpLeg  -12.8755 1.93828 1.43487
RightLeg  22.7101 -8.53594 -4.1224
RightFoot  -13.5169 0.0140892 5.56962
RightToes  -1.33073e-015 0 -3.6325e-017
Spine  11.134 -3.40558 -0.972011
Spine1  -6.85405 -2.53633 -7.29498
HEad  12.8909 -12.2854 5.20198
LeftShoulder1  0.751106 1.48787 -31.1775
LeftArm  -36.8414 30.2153 -15.0673
LeftForeArm  -4.24388 -58.8082 -19.3726
LeftHand  0.097227 7.7526 6.3895
RightShoulder  -0.00205029 -3.51592 2.35575
RightArm  -7.62158 5.48112 -2.6216
RightForeArm  30.708 71.3862 32.342
RightHand  0.875267 0.653298 16.6925
LeftUpLeg  -9.43448 14.7479 14.1872
LeftLeg  18.8555 -5.27505 -1.67978
LeftFoot  -8.61438 0.342831 -12.2051
LeftToes  -2.73175e-012 1.00346e-010 -4.28452e-011
88
root  44.8362 39.1711 6.25537 -179.977 -31.3857 -178.135
RightUpLeg  -12.0908 3.65522 0.773888
RightLeg  20.8619 -8.00769 -3.57694
RightFoot  -12.3957 -0.0282834 6.06974
RightToes  -1.33073e-015 0 -3.6325e-017
Spine  9.38696 -3.22767 0.918516
Spine1  -5.13283 -1.30885 -12.6609
HEad  12.8469 -11.6644 7.42159
LeftShoulder1  0.709964 1.66066 -32.4369
LeftArm  -37.8142 27.6726 -11.2218
LeftForeArm  -3.79627 -59.7265 -20.119
LeftHand  0.0964575 7.79692 6.25384
RightShoulder  0.162371 -0.596248 -3.30995
RightArm  8.6593 1.64528 2.02209
RightForeArm  26.7103 70.9725 32.1368
RightHand  0.97432 -0.0808408 21.1949
LeftUpLeg  -7.61935 14.9505 13.6411
LeftLeg  16.9988 -3.3109 -0.834686
LeftFoot  -8.06134 0.401028 -12.2874
LeftToes  -2.73175e-012 1.00346e-010 -4.28452e-011
89
root  44.6569 39.3257 6.35339 -179.859 -28.8653 -178.192
RightUpLeg  -11.4306 5.33317 0.51197
RightLeg  18.7197 -7.37159 -3.09251
RightFoot  -10.8418 -0.100724 6.19838
RightToes  -1.33073e-015 0 -3.6325e-017
Spine  7.50981 -2.34099 3.08655
Spine1  -3.13735 0.712705 -17.5262
HEad  11.9472 -11.7645 9.93206
LeftShoulder1  0.674892 1.86621 -35.0941
LeftArm  -39.1329 23.1933 -7.14692
LeftForeArm  -3.27995 -59.4548 -19.8337
LeftHand  0.0674614 7.43696 5.66986
RightShoulder  0.135666 2.85691 -7.25461
RightArm  23.0044 -3.59462 6.38835
RightForeArm  22.9445 70.1784 31.0239
RightHand  0.871849 -0.795095 22.0535
LeftUpLeg  -5.97558 15.6735 13.5325
LeftLeg  15.2162 -1.52276 -0.413723
LeftFoot  -7.53086 0.450957 -12.1678
LeftToes  -2.73175e-012 1.00346e-010 -4.28452e-011
90
root  44.5024 39.4751 6.44567 -179.645 -26.7735 -177.949
RightUpLeg  -10.9354 6.2435 0.628219
RightLeg  16.3586 -6.42805 -2.73024
RightFoot  -8.9008 -0.19162 6.14771
RightToes  -1.33073e-015 0 -3.6325e-017
Spine  5.71796 -1.28847 5.3353
Spine1  -1.39237 2.89647 -21.9661
HEad  10.6891 -11.765 12.839
LeftShoulder1  0.605666 2.099 -36.938
LeftArm  -40.4789 18.5299 -4.43626
LeftForeArm  -3.15331 -58.7959 -19.2645
LeftHand  0.0340294 6.89548 5.01345
RightShoulder  0.177167 6.45356 -7.64531
RightArm  33.7662 -7.99982 9.60748
RightForeArm  14.6914 67.2685 26.9121
RightHand  0.529612 -2.33901 20.8239
LeftUpLeg  -4.76631 16.2073 13.7568
LeftLeg  13.5049 0.117335 -0.4367
LeftFoot  -6.89987 0.506741 -11.9702
LeftToes  -2.73175e-012 1.00346e-010 -4.28452e-011
91
root  44.3615 39.5943 6.55612 -179.407 -25.6222 -177.824
RightUpLeg  -10.4783 5.88524 0.679063
RightLeg  14.3312 -5.09449 -2.52659
RightFoot  -7.50051 -0.257681 6.1563
RightToes  -1.33073e-015 0 -3.6325e-017
Spine  4.73952 -0.296408 6.57327
Spine1  -0.454091 4.5492 -24.387
HEad  9.16302 -12.1963 15.4674
LeftShoulder1  0.533718 2.29913 -38.0777
LeftArm  -41.2704 14.6061 -3.35295
LeftForeArm  -3.07905 -58.0446 -18.6524
LeftHand  0.00528532 6.31349 4.32818
RightShoulder  0.498566 9.75708 -5.36309
RightArm  40.0408 -10.8073 11.6731
RightForeArm  7.56186 60.5746 19.7689
RightHand  0.342264 -2.74096 15.9578
LeftUpLeg  -4.02808 16.209 13.7937
LeftLeg  12.1031 1.43403 -0.703203
LeftFoot  -6.24618 0.553292 -11.566
LeftToes  -2.73175e-012 1.00346e-010 -4.28452e-011
